<?xml version="1.0" encoding="UTF-8" standalone="no"?>
<svg
   xmlns:dc="http://purl.org/dc/elements/1.1/"
   xmlns:cc="http://creativecommons.org/ns#"
   xmlns:rdf="http://www.w3.org/1999/02/22-rdf-syntax-ns#"
   xmlns:svg="http://www.w3.org/2000/svg"
   xmlns="http://www.w3.org/2000/svg"
   xmlns:sodipodi="http://sodipodi.sourceforge.net/DTD/sodipodi-0.dtd"
   xmlns:inkscape="http://www.inkscape.org/namespaces/inkscape"
   width="2.3499978cm"
   height="9.0239143cm"
   viewBox="246 13 45.694401 135.35871"
   id="svg2"
   version="1.1"
   inkscape:version="0.91 r13725"
   sodipodi:docname="backtotop_vertical.svg">
  <metadata
     id="metadata46">
    <rdf:RDF>
      <cc:Work
         rdf:about="">
        <dc:format>image/svg+xml</dc:format>
        <dc:type
           rdf:resource="http://purl.org/dc/dcmitype/StillImage" />
        <dc:title></dc:title>
      </cc:Work>
    </rdf:RDF>
  </metadata>
  <defs
     id="defs44">
    <inkscape:perspective
       sodipodi:type="inkscape:persp3d"
       inkscape:vp_x="0 : 17.624983 : 1"
       inkscape:vp_y="0 : 1000 : 0"
       inkscape:vp_z="175.46501 : 17.624983 : 1"
       inkscape:persp3d-origin="87.732507 : 11.749989 : 1"
       id="perspective8106" />
  </defs>
  <sodipodi:namedview
     pagecolor="#ffffff"
     bordercolor="#666666"
     borderopacity="1"
     objecttolerance="10"
     gridtolerance="10"
     guidetolerance="10"
     inkscape:pageopacity="0"
     inkscape:pageshadow="2"
     inkscape:window-width="1871"
     inkscape:window-height="1176"
     id="namedview42"
     showgrid="false"
     fit-margin-top="0"
     fit-margin-left="0"
     fit-margin-right="0"
     fit-margin-bottom="0"
     inkscape:zoom="2.7672493"
     inkscape:cx="71.75104"
     inkscape:cy="140.9263"
     inkscape:window-x="3889"
     inkscape:window-y="24"
     inkscape:window-maximized="1"
     inkscape:current-layer="svg2" />
  <g
     id="g4"
     transform="matrix(0,1,-1,0,304.46214,-252.88095)">
    <rect
       style="fill:#bfbfbf"
       x="256.48401"
       y="13.0694"
       width="154.465"
       height="44.694401"
       id="rect6" />
    <path
       style="fill:#bfbfbf"
       d="m 256.484,13.0694 a 10,10 0 0 0 -10,10 l 10,0 z"
       id="path8"
       inkscape:connector-curvature="0" />
    <path
       style="fill:#bfbfbf"
       d="m 420.949,23.0694 a 10,10 0 0 0 -10,-10 l 0,10 z"
       id="path10"
       inkscape:connector-curvature="0" />
    <rect
       style="fill:#bfbfbf"
       x="246.48399"
       y="23.069401"
       width="174.465"
       height="24.694401"
       id="rect12" />
    <path
       style="fill:#bfbfbf"
       d="m 246.484,47.7638 a 10,10 0 0 0 10,10 l 0,-10 z"
       id="path14"
       inkscape:connector-curvature="0" />
    <path
       style="fill:#bfbfbf"
       d="m 410.949,57.7638 a 10,10 0 0 0 10,-10 l -10,0 z"
       id="path16"
       inkscape:connector-curvature="0" />
    <line
       style="fill:none;fill-opacity:0;stroke:#bfbfbf"
       x1="256.48401"
       y1="13.0694"
       x2="410.94901"
       y2="13.0694"
       id="line18" />
    <line
       style="fill:none;fill-opacity:0;stroke:#bfbfbf"
       x1="256.48401"
       y1="57.763802"
       x2="410.94901"
       y2="57.763802"
       id="line20" />
    <path
       style="fill:none;fill-opacity:0;stroke:#bfbfbf"
       d="m 256.484,13.0694 a 10,10 0 0 0 -10,10"
       id="path22"
       inkscape:connector-curvature="0" />
    <path
       style="fill:none;fill-opacity:0;stroke:#bfbfbf"
       d="m 420.949,23.0694 a 10,10 0 0 0 -10,-10"
       id="path24"
       inkscape:connector-curvature="0" />
    <line
       style="fill:none;fill-opacity:0;stroke:#bfbfbf"
       x1="246.48399"
       y1="23.069401"
       x2="246.48399"
       y2="47.763802"
       id="line26" />
    <line
       style="fill:none;fill-opacity:0;stroke:#bfbfbf"
       x1="420.94901"
       y1="23.069401"
       x2="420.94901"
       y2="47.763802"
       id="line28" />
    <path
       style="fill:none;fill-opacity:0;stroke:#bfbfbf"
       d="m 246.484,47.7638 a 10,10 0 0 0 10,10"
       id="path30"
       inkscape:connector-curvature="0" />
    <path
       style="fill:none;fill-opacity:0;stroke:#bfbfbf"
       d="m 410.949,57.7638 a 10,10 0 0 0 10,-10"
       id="path32"
       inkscape:connector-curvature="0" />
    <text
       font-size="19.7556"
       style="font-style:normal;font-weight:normal;font-size:19.75559998px;font-family:Comfortaa;text-anchor:middle;fill:#ffffff"
       x="333.716"
       y="38.519402"
       id="text34">
      <tspan
         x="333.716"
         y="38.519402"
         id="tspan36" />
    </text>
  </g>
  <text
     font-size="25.4"
     style="font-style:normal;font-weight:normal;font-size:25.39999962px;font-family:Comfortaa;text-anchor:start;fill:#ffffff"
     x="-3.5414732"
     y="-260.59851"
     id="text38"
     transform="matrix(0,1,-1,0,0,0)">
    <tspan
       x="-3.5414732"
       y="-260.59851"
       id="tspan40">BACK TO TOP</tspan>
  </text>
</svg>
