<?xml version="1.0" encoding="UTF-8" standalone="no"?>
<!DOCTYPE svg PUBLIC "-//W3C//DTD SVG 1.0//EN" "http://www.w3.org/TR/2001/PR-SVG-20010719/DTD/svg10.dtd">
<svg width="9cm" height="3cm" viewBox="246 13 175 45" xmlns="http://www.w3.org/2000/svg" xmlns:xlink="http://www.w3.org/1999/xlink">
  <g>
    <rect style="fill: #bfbfbf" x="256.484" y="13.0694" width="154.465" height="44.6944"/>
    <path style="fill: #bfbfbf" d="M 256.484,13.0694 A 10,10 0 0 0 246.484,23.0694 L 256.484,23.0694 z"/>
    <path style="fill: #bfbfbf" d="M 420.949,23.0694 A 10,10 0 0 0 410.949,13.0694 L 410.949,23.0694 z"/>
    <rect style="fill: #bfbfbf" x="246.484" y="23.0694" width="174.465" height="24.6944"/>
    <path style="fill: #bfbfbf" d="M 246.484,47.7638 A 10,10 0 0 0 256.484,57.7638 L 256.484,47.7638 z"/>
    <path style="fill: #bfbfbf" d="M 410.949,57.7638 A 10,10 0 0 0 420.949,47.7638 L 410.949,47.7638 z"/>
    <line style="fill: none; fill-opacity:0; stroke-width: 2.35099e-37; stroke: #bfbfbf" x1="256.484" y1="13.0694" x2="410.949" y2="13.0694"/>
    <line style="fill: none; fill-opacity:0; stroke-width: 2.35099e-37; stroke: #bfbfbf" x1="256.484" y1="57.7638" x2="410.949" y2="57.7638"/>
    <path style="fill: none; fill-opacity:0; stroke-width: 2.35099e-37; stroke: #bfbfbf" d="M 256.484,13.0694 A 10,10 0 0 0 246.484,23.0694"/>
    <path style="fill: none; fill-opacity:0; stroke-width: 2.35099e-37; stroke: #bfbfbf" d="M 420.949,23.0694 A 10,10 0 0 0 410.949,13.0694"/>
    <line style="fill: none; fill-opacity:0; stroke-width: 2.35099e-37; stroke: #bfbfbf" x1="246.484" y1="23.0694" x2="246.484" y2="47.7638"/>
    <line style="fill: none; fill-opacity:0; stroke-width: 2.35099e-37; stroke: #bfbfbf" x1="420.949" y1="23.0694" x2="420.949" y2="47.7638"/>
    <path style="fill: none; fill-opacity:0; stroke-width: 2.35099e-37; stroke: #bfbfbf" d="M 246.484,47.7638 A 10,10 0 0 0 256.484,57.7638"/>
    <path style="fill: none; fill-opacity:0; stroke-width: 2.35099e-37; stroke: #bfbfbf" d="M 410.949,57.7638 A 10,10 0 0 0 420.949,47.7638"/>
    <text font-size="19.7556" style="fill: #ffffff;text-anchor:middle;font-family:Comfortaa;font-style:normal;font-weight:normal" x="333.716" y="38.5194">
      <tspan x="333.716" y="38.5194"></tspan>
    </text>
  </g>
  <text font-size="25.4" style="fill: #ffffff;text-anchor:start;font-family:Comfortaa;font-style:normal;font-weight:normal" x="252.046" y="44.794">
    <tspan x="252.046" y="44.794">BACK TO TOP</tspan>
  </text>
</svg>
