<?xml version="1.0" ?><!DOCTYPE svg  PUBLIC '-//W3C//DTD SVG 1.1//EN'  'http://www.w3.org/Graphics/SVG/1.1/DTD/svg11.dtd'><svg height="512px" id="Layer_1" style="enable-background:new 0 0 512 512;" version="1.1" viewBox="0 0 512 512" width="512px" xml:space="preserve" xmlns="http://www.w3.org/2000/svg" xmlns:xlink="http://www.w3.org/1999/xlink"><g id="Layer_1_1_"><circle cx="262.697" cy="246.783" r="243" style="fill:#90D7EF;"/></g><g id="Layer_2"><g id="Favorite"/><g><path d="M313.855,495.063c0,0.596-0.052,1.17-0.157,1.724c0.042,0.261,0.073,0.522,0.073,0.784    c0,3.898-5.433,7.44-14.284,10.041c-4.044,1.181-8.787,2.173-14.064,2.915c-6.75,0.94-14.346,1.473-22.381,1.473    c-7.178,0-14.012-0.418-20.198-1.191c-17.972-2.215-30.542-7.304-30.542-13.239c0-0.324,0.052-0.648,0.125-0.972    c-0.084-0.491-0.125-1.003-0.125-1.536v-11.88c0-4.033,2.497-7.314,5.58-7.314h90.393c3.082,0,5.58,3.281,5.58,7.314    L313.855,495.063L313.855,495.063z" style="fill:#948DB7;"/><path d="M242.845,475.868v34.941    c-17.972-2.215-30.542-7.304-30.542-13.239c0-0.324,0.052-0.648,0.125-0.972c-0.084-0.491-0.125-1.003-0.125-1.536v-11.88    c0-4.033,2.497-7.314,5.58-7.314H242.845z" style="opacity:0.3;fill:#948DB7;adobe-blending-mode:multiply;enable-background:new    ;"/><path d="M299.488,473.622v33.99    c-4.044,1.181-8.787,2.173-14.064,2.915v-36.905H299.488z" style="opacity:0.4;fill:#948DB7;adobe-blending-mode:screen;enable-background:new    ;"/><path d="M313.855,483.182v5.256H212.303v-5.256    c0-4.033,2.497-7.314,5.58-7.314h90.393C311.358,475.868,313.855,479.149,313.855,483.182z" style="opacity:0.2;adobe-blending-mode:multiply;enable-background:new    ;"/><path d="M328.086,464.207v11.88c0,4.033-3.229,7.314-7.199,7.314H204.372c-3.971,0-7.199-3.281-7.199-7.314    v-11.88c0-1.849,0.669-3.532,1.797-4.817c1.306-1.536,3.25-2.497,5.402-2.497h116.515c2.403,0,4.535,1.202,5.83,3.041    C327.585,461.135,328.086,462.608,328.086,464.207z" style="fill:#948DB7;"/><path d="M389.891,249.745c0,47.918-44.575,91.02-44.575,91.02c-11.577,11.191-21.044,33.509-21.044,49.601    v22.893c0,12.173-7.534,22.674-18.181,27.062c-3.417,1.411-7.157,2.194-11.076,2.194h-64.772    c-16.091,0-29.257-13.165-29.257-29.257v-22.893c0-16.091-9.467-38.41-21.033-49.601c0,0-44.585-43.101-44.585-91.02    c0-67.332,52.296-122.45,118.5-126.943c2.894-0.209,5.82-0.313,8.767-0.313c6.395,0,12.674,0.47,18.818,1.379    C342.808,132.969,389.891,185.861,389.891,249.745z" style="fill:#E7D787;"/><line style="opacity:0.3;fill:none;stroke:#000000;stroke-width:10.4488;stroke-miterlimit:10;adobe-blending-mode:multiply;enable-background:new    ;" x1="299.486" x2="282.51" y1="324.413" y2="438.028"/><line style="opacity:0.3;fill:none;stroke:#000000;stroke-width:10.4488;stroke-miterlimit:10;adobe-blending-mode:multiply;enable-background:new    ;" x1="250.658" x2="233.682" y1="437.694" y2="324.413"/><g><g><path d="M236.777,349.452c-11.014,0-16.452-3.556-22.636-10.117l-0.323-0.343l-0.465-0.072      c-2.826-0.439-5.43-1.196-7.737-2.25c-0.613-0.282-1.194-0.572-1.723-0.863c-6.565-3.607-10.996-9.91-13.544-19.269      l-0.106-0.392l-0.302-0.271c-6.416-5.755-9.296-10.212-8.307-19.973l0.059-0.574l-0.37-0.443      c-6.237-7.483-5.729-15.343,1.651-25.485l0.475-0.652l-0.339-0.732c-3.288-7.104-1.05-14.543,6.474-21.512l0.671-0.623      l-0.315-0.858c-1.729-4.703-1.378-9.041,1.045-12.893c3.703-5.886,10.67-8.506,12.116-8.644l0.917-0.088l0.267-0.882      c2.931-9.681,16.567-12.813,22.712-12.813c0.275,0,0.53,0.007,0.762,0.021l1.235,0.076l0.203-1.221      c0.066-0.397,1.783-9.741,15.604-9.741c12.143,0,12.922,9.521,12.949,9.927l-0.003,123.185      c-0.002,0.645-0.219,15.852-14.958,17.204C240.631,349.352,238.608,349.452,236.777,349.452z" style="fill:#D48763;"/><path d="M244.801,200.212c10.318,0,11.46,7.441,11.573,8.578v123.151      c-0.004,0.596-0.247,14.609-13.71,15.845c-2.118,0.194-4.099,0.292-5.888,0.292c-10.574,0-15.582-3.262-21.635-9.686      l-0.647-0.686l-0.932-0.144c-2.701-0.419-5.183-1.139-7.373-2.14c-0.585-0.268-1.135-0.544-1.636-0.819      c-6.222-3.419-10.436-9.446-12.881-18.426l-0.213-0.782l-0.603-0.541c-6.189-5.552-8.792-9.585-7.857-18.812l0.116-1.149      l-0.739-0.887c-5.842-7.008-5.331-14.126,1.707-23.798l0.949-1.305l-0.678-1.464c-3.807-8.227,1.248-15.378,6.16-19.928      l1.343-1.244l-0.632-1.718c-1.575-4.282-1.266-8.214,0.919-11.688c3.201-5.088,9.586-7.864,11.084-8.008l1.833-0.175      l0.534-1.763c2.681-8.857,15.817-11.838,21.397-11.838c0.245,0,0.472,0.006,0.678,0.019l2.471,0.152l0.407-2.441      C230.609,208.455,232.129,200.212,244.801,200.212 M244.801,197.466c-13.566,0-16.585,8.645-16.959,10.888      c-0.257-0.016-0.54-0.024-0.846-0.024c-5.981,0-20.798,3.127-24.026,13.789c-3.393,0.324-19.973,8.007-14.32,23.377      c-8.293,7.682-10.173,15.776-6.786,23.096c-6.027,8.283-9.604,17.565-1.596,27.173c-1.038,10.245,1.975,15.051,8.756,21.134      c1.735,6.374,5.234,15.181,14.208,20.112c0.58,0.319,1.189,0.622,1.814,0.908c2.344,1.07,5.028,1.881,8.097,2.357      c6.471,6.867,12.233,10.549,23.634,10.549c1.883,0,3.92-0.1,6.138-0.303c16.206-1.487,16.206-18.571,16.206-18.571V208.673      C259.121,208.673,258.367,197.466,244.801,197.466L244.801,197.466z" style="fill:#B95429;"/></g><g><path d="M189.272,249.82c0,0,0.416,0.273,1.143,0.751c0.35,0.244,0.812,0.499,1.296,0.827      c0.502,0.3,1.067,0.639,1.685,1.009c0.624,0.351,1.288,0.732,2.009,1.092c0.699,0.398,1.477,0.727,2.252,1.106      c0.788,0.35,1.614,0.676,2.447,0.997c0.858,0.247,1.691,0.622,2.577,0.781l1.304,0.337c0.441,0.068,0.88,0.135,1.316,0.202      c0.438,0.047,0.867,0.186,1.301,0.182c0.432,0.022,0.86,0.041,1.284,0.077c0.85,0.112,1.667,0.004,2.459,0      c0.798,0.02,1.543-0.083,2.24-0.18c0.35-0.042,0.685-0.093,1.011-0.123c0.327-0.027,0.642-0.05,0.92-0.131      c0.564-0.138,1.075-0.228,1.497-0.311c0.847-0.161,1.362-0.225,1.362-0.225s-0.38,0.318-1.099,0.825      c-0.36,0.251-0.8,0.567-1.327,0.895c-0.516,0.354-1.172,0.588-1.875,0.898c-0.356,0.15-0.728,0.306-1.112,0.468      c-0.387,0.162-0.815,0.219-1.244,0.338c-0.867,0.186-1.787,0.462-2.768,0.47c-0.977,0.062-1.999,0.147-3.022-0.006      c-0.513-0.053-1.035-0.092-1.552-0.167l-1.526-0.359c-1.029-0.216-1.984-0.642-2.939-1.008c-0.48-0.179-0.912-0.446-1.357-0.67      c-0.436-0.242-0.889-0.438-1.28-0.724c-0.807-0.528-1.581-1.04-2.243-1.617c-0.691-0.538-1.272-1.131-1.805-1.67      c-0.539-0.532-0.973-1.082-1.359-1.557c-0.377-0.487-0.685-0.922-0.918-1.299C189.469,250.289,189.272,249.82,189.272,249.82z" style="fill:#B95429;"/></g><g><path d="M214.804,242.46c0,0,0.031,0.554,0.112,1.494c0.09,0.94,0.234,2.266,0.511,3.799      c0.135,0.767,0.342,1.579,0.556,2.421c0.244,0.835,0.511,1.701,0.869,2.549c0.365,0.843,0.763,1.694,1.276,2.477      c0.5,0.791,1.067,1.545,1.734,2.203c0.626,0.7,1.393,1.253,2.144,1.807c0.401,0.241,0.795,0.494,1.198,0.727      c0.422,0.201,0.823,0.433,1.245,0.618c0.428,0.174,0.842,0.362,1.264,0.523c0.429,0.149,0.849,0.296,1.258,0.438      c0.843,0.221,1.639,0.499,2.407,0.648c0.761,0.18,1.472,0.332,2.111,0.443c0.637,0.123,1.2,0.241,1.668,0.302      c0.934,0.152,1.482,0.276,1.482,0.276s-0.524,0.162-1.466,0.379c-0.47,0.118-1.046,0.235-1.715,0.303      c-0.336,0.043-0.694,0.089-1.071,0.137c-0.379,0.03-0.778,0.027-1.198,0.042c-0.84,0.052-1.755-0.023-2.729-0.103      c-0.485-0.081-0.984-0.164-1.493-0.249c-0.511-0.095-1.02-0.267-1.547-0.404c-1.042-0.328-2.099-0.783-3.116-1.375      c-0.997-0.622-1.98-1.338-2.808-2.221c-0.438-0.419-0.789-0.913-1.172-1.374c-0.334-0.495-0.685-0.983-0.949-1.507      c-0.588-1.021-0.978-2.107-1.282-3.156c-0.584-2.114-0.679-4.129-0.545-5.808c0.105-1.682,0.445-3.04,0.722-3.965      C214.554,242.957,214.804,242.46,214.804,242.46z" style="fill:#B95429;"/></g><g><path d="M259.12,246.14c0,0-0.056,0.943-0.387,2.561c-0.329,1.616-0.915,3.918-1.982,6.562      c-0.521,1.327-1.153,2.744-1.935,4.186c-0.761,1.455-1.662,2.943-2.697,4.417c-1.066,1.449-2.178,2.957-3.505,4.323      c-1.281,1.407-2.737,2.692-4.24,3.914c-1.546,1.168-3.134,2.292-4.819,3.191c-0.417,0.23-0.833,0.459-1.247,0.687      c-0.43,0.196-0.857,0.391-1.283,0.585c-0.84,0.408-1.703,0.733-2.551,1.049c-0.84,0.337-1.686,0.607-2.526,0.834      c-0.83,0.257-1.657,0.447-2.466,0.609c-1.6,0.398-3.156,0.538-4.57,0.708c-1.428,0.081-2.726,0.201-3.883,0.137      c-1.154-0.027-2.153-0.033-2.975-0.143c-1.643-0.17-2.567-0.307-2.567-0.307s0.936-0.152,2.551-0.349      c0.809-0.069,1.779-0.297,2.889-0.458c1.113-0.147,2.339-0.497,3.682-0.748c0.666-0.161,1.35-0.368,2.059-0.559      c0.714-0.174,1.435-0.41,2.173-0.656c0.743-0.23,1.497-0.487,2.245-0.809c0.753-0.308,1.537-0.573,2.293-0.947      c0.769-0.342,1.547-0.691,2.299-1.118c0.768-0.395,1.528-0.82,2.276-1.283c1.516-0.887,2.969-1.927,4.383-3.013      c1.393-1.113,2.743-2.287,3.981-3.543c1.257-1.236,2.414-2.54,3.488-3.846c1.031-1.338,2.047-2.63,2.906-3.935      c0.862-1.301,1.659-2.554,2.342-3.746c1.371-2.382,2.387-4.461,3.058-5.943C258.785,247.02,259.12,246.14,259.12,246.14z" style="fill:#B95429;"/></g><g><path d="M180.266,295.766c0,0,0.115,0.089,0.332,0.256c0.204,0.171,0.546,0.38,0.943,0.666      c0.427,0.257,0.915,0.59,1.518,0.899c0.579,0.341,1.284,0.627,2.012,0.972c0.371,0.161,0.781,0.278,1.187,0.426      c0.202,0.072,0.408,0.146,0.617,0.221c0.216,0.054,0.435,0.109,0.658,0.164c0.448,0.096,0.88,0.266,1.353,0.333      c0.474,0.064,0.95,0.149,1.433,0.228c0.476,0.11,0.991,0.068,1.49,0.119c0.506,0.006,1.007,0.109,1.528,0.051      c1.034-0.081,2.082-0.024,3.128-0.253l1.573-0.216c0.52-0.099,1.034-0.248,1.548-0.366c0.513-0.128,1.024-0.246,1.534-0.355      c0.505-0.128,0.986-0.331,1.475-0.476c0.488-0.156,0.969-0.309,1.439-0.459c0.237-0.072,0.472-0.143,0.705-0.214      c0.225-0.092,0.448-0.182,0.667-0.272c0.878-0.361,1.727-0.677,2.518-0.968c0.799-0.274,1.489-0.623,2.126-0.892      c0.627-0.286,1.195-0.508,1.661-0.698c0.934-0.376,1.497-0.564,1.497-0.564s-0.396,0.422-1.138,1.112      c-0.372,0.343-0.822,0.768-1.363,1.226c-0.539,0.459-1.124,1.021-1.87,1.473c-0.722,0.49-1.513,1.02-2.369,1.553      c-0.418,0.287-0.879,0.523-1.363,0.745c-0.483,0.226-0.976,0.457-1.478,0.692c-0.507,0.228-1.013,0.481-1.554,0.672      c-0.548,0.178-1.106,0.35-1.672,0.516c-0.568,0.157-1.128,0.363-1.717,0.477l-1.792,0.28c-1.189,0.229-2.425,0.174-3.623,0.177      c-0.599,0.035-1.196-0.119-1.781-0.184c-0.583-0.106-1.168-0.119-1.718-0.315c-0.554-0.161-1.098-0.313-1.622-0.481      c-0.524-0.168-1.01-0.42-1.487-0.63c-0.479-0.211-0.934-0.432-1.342-0.714c-0.412-0.27-0.82-0.504-1.182-0.774      c-0.722-0.548-1.352-1.075-1.844-1.614c-0.528-0.492-0.888-1.027-1.206-1.425C180.489,296.309,180.266,295.766,180.266,295.766z      " style="fill:#B95429;"/></g><g><path d="M217.375,343.433c0,0-0.785-0.667-1.971-2.024c-1.186-1.353-2.796-3.393-4.268-6.173      c-0.75-1.383-1.427-2.968-1.956-4.734c-0.544-1.761-0.861-3.737-0.81-5.828c0.044-2.087,0.546-4.3,1.588-6.295      c1.039-1.995,2.554-3.737,4.279-5.109c1.644-1.295,3.418-2.505,5.263-3.497c1.847-0.989,3.777-1.791,5.728-2.328      c1.955-0.527,3.935-0.729,5.794-0.673c1.865,0.045,3.595,0.46,5.107,0.977c1.52,0.518,2.792,1.257,3.861,1.949      c1.071,0.698,1.898,1.441,2.557,2.056c0.657,0.621,1.117,1.16,1.43,1.524c0.302,0.373,0.462,0.572,0.462,0.572      s-0.203-0.155-0.582-0.446c-0.376-0.292-0.947-0.696-1.685-1.175c-1.473-0.945-3.7-2.158-6.535-2.777      c-2.823-0.628-6.236-0.528-9.605,0.671c-1.692,0.564-3.377,1.367-5.003,2.35c-1.631,0.979-3.197,2.098-4.727,3.331      c-1.426,1.18-2.634,2.557-3.464,4.099c-0.852,1.532-1.308,3.229-1.475,4.935c-0.28,3.442,0.604,6.812,1.6,9.58      c1.024,2.78,2.18,5.027,3.017,6.587C216.83,342.561,217.375,343.433,217.375,343.433z" style="fill:#B95429;"/></g></g><g><g><path d="M292.836,349.45c-1.858,0-3.827-0.098-6.02-0.298c-14.735-1.35-14.952-16.558-14.954-17.204      V208.676c0.027-0.309,0.878-9.838,12.943-9.838c13.819,0,15.542,9.344,15.608,9.741l0.204,1.222l1.236-0.078      c0.231-0.014,0.487-0.021,0.763-0.021c1.128,0,2.499,0.118,3.965,0.342c3.682,0.574,15.928,3.173,18.743,12.472l0.267,0.881      l0.916,0.089c2.678,0.258,13.409,5.434,14.2,14.725c0.053,0.606,0.06,1.195,0.022,1.802c-0.074,1.624-0.431,3.303-1.063,5.009      l-0.318,0.86l0.674,0.624c7.523,6.968,9.762,14.406,6.475,21.51l-0.339,0.732l0.475,0.652      c7.381,10.145,7.891,18.004,1.654,25.485l-0.37,0.443l0.059,0.574c0.988,9.761-1.892,14.219-8.308,19.977l-0.302,0.271      l-0.106,0.391c-3.6,13.225-11.124,20.544-23.005,22.377l-0.467,0.072l-0.324,0.344      C309.286,345.894,303.85,349.45,292.836,349.45z" style="fill:#D48763;"/><path d="M284.806,200.211c12.669,0,14.195,8.244,14.254,8.595l0.409,2.441l2.47-0.154      c0.205-0.013,0.431-0.019,0.676-0.019c1.046,0,2.381,0.116,3.751,0.325c7.184,1.12,15.592,4.732,17.645,11.514l0.533,1.762      l1.832,0.176c1.698,0.163,12.216,4.699,12.963,13.479c0.046,0.533,0.053,1.057,0.018,1.639c-0.067,1.461-0.396,3-0.978,4.574      l-0.637,1.721l1.346,1.247c4.912,4.55,9.969,11.7,6.162,19.926l-0.678,1.464l0.949,1.305c7.039,9.674,7.55,16.791,1.709,23.797      l-0.739,0.887l0.116,1.149c0.935,9.227-1.669,13.262-7.858,18.818l-0.603,0.541l-0.213,0.781      c-2.196,8.067-6.855,19.061-21.89,21.381l-0.933,0.144l-0.647,0.687c-6.049,6.424-11.056,9.686-21.629,9.686      c-1.791,0-3.774-0.098-5.894-0.293c-13.459-1.232-13.703-15.247-13.706-15.834V208.785      C273.32,207.883,274.349,200.211,284.806,200.211 M284.806,197.465c-13.566,0-14.316,11.211-14.316,11.211V331.95      c0,0,0,17.086,16.202,18.569c2.222,0.203,4.26,0.304,6.145,0.304c11.398,0,17.16-3.68,23.629-10.549      c16.583-2.559,21.855-15.05,24.121-23.373c6.778-6.084,9.794-10.893,8.756-21.138c8.006-9.603,4.43-18.888-1.598-27.172      c3.386-7.318,1.506-15.413-6.788-23.095c0.709-1.917,1.069-3.714,1.146-5.402c0.041-0.687,0.031-1.349-0.026-2.001      c-0.889-10.445-12.641-15.707-15.437-15.976c-2.621-8.657-12.888-12.346-19.851-13.432c-1.616-0.247-3.051-0.358-4.175-0.358      c-0.306,0-0.589,0.008-0.846,0.024C301.393,206.112,298.372,197.465,284.806,197.465L284.806,197.465z" style="fill:#B95429;"/></g><g><path d="M271.874,319.801c0,0,0.115-0.78,0.591-2.079c0.477-1.29,1.304-3.127,2.809-5.042      c1.469-1.922,3.703-3.912,6.614-5.166c1.448-0.621,3.043-1.057,4.685-1.249c1.649-0.206,3.305-0.167,4.98,0.038      c1.499,0.2,3.136,0.485,4.639,0.847c1.524,0.364,3.014,0.804,4.42,1.344c2.811,1.072,5.321,2.512,7.125,4.19      c0.911,0.825,1.628,1.717,2.157,2.566c0.533,0.85,0.843,1.679,1.014,2.367c0.177,0.69,0.175,1.252,0.161,1.621      c-0.018,0.371-0.059,0.562-0.059,0.562s-0.032-0.195-0.126-0.543c-0.085-0.348-0.269-0.841-0.577-1.411      c-0.311-0.571-0.786-1.197-1.394-1.839c-0.621-0.635-1.413-1.253-2.321-1.853c-0.921-0.588-1.986-1.116-3.136-1.623      c-1.156-0.499-2.432-0.903-3.76-1.293c-1.334-0.374-2.733-0.705-4.174-0.979c-1.463-0.277-2.868-0.5-4.424-0.698      c-1.384-0.173-2.826-0.212-4.195-0.105c-1.375,0.117-2.708,0.382-3.954,0.802c-1.244,0.42-2.413,0.966-3.464,1.609      c-1.041,0.657-1.981,1.38-2.809,2.112c-1.638,1.485-2.837,2.969-3.624,4.052C272.267,319.12,271.874,319.801,271.874,319.801z" style="fill:#B95429;"/></g><g><path d="M341.705,313.779c0,0-0.154,0.342-0.575,0.848c-0.215,0.242-0.481,0.55-0.836,0.833      c-0.342,0.311-0.766,0.605-1.249,0.908c-0.49,0.279-1.039,0.572-1.651,0.791c-0.606,0.262-1.273,0.401-1.967,0.575      c-0.348,0.068-0.704,0.105-1.067,0.152c-0.362,0.048-0.731,0.099-1.099,0.086c-0.738,0.013-1.496,0.019-2.232-0.087      c-0.742-0.087-1.479-0.188-2.176-0.395c-0.707-0.168-1.394-0.363-2.024-0.635c-0.633-0.261-1.254-0.491-1.8-0.795      c-0.547-0.303-1.054-0.603-1.513-0.89c-0.466-0.273-0.854-0.595-1.197-0.876c-0.348-0.27-0.634-0.536-0.871-0.747      c-0.471-0.427-0.717-0.702-0.717-0.702s0.38,0.021,1.004,0.112c0.633,0.069,1.478,0.287,2.504,0.444      c0.509,0.087,1.052,0.193,1.615,0.318c0.562,0.132,1.167,0.192,1.771,0.323c0.603,0.142,1.232,0.211,1.861,0.314      c0.63,0.117,1.265,0.196,1.901,0.253c0.635,0.113,1.265,0.11,1.889,0.17c0.625,0.055,1.229,0.023,1.829,0.057      c0.584-0.044,1.174-0.01,1.714-0.083c0.554-0.028,1.068-0.105,1.559-0.167c0.477-0.087,0.945-0.139,1.339-0.241      c0.401-0.093,0.756-0.179,1.053-0.262C341.352,313.912,341.705,313.779,341.705,313.779z" style="fill:#B95429;"/></g><g><path d="M271.874,278.207c0,0-0.233-0.805-0.367-2.265c-0.141-1.456-0.187-3.576,0.234-6.098      c0.405-2.518,1.339-5.435,3.011-8.253c0.437-0.688,0.875-1.402,1.405-2.058c0.261-0.332,0.524-0.666,0.788-1.002l0.875-0.944      c0.577-0.642,1.246-1.201,1.891-1.788c0.699-0.516,1.357-1.105,2.101-1.56c0.73-0.479,1.466-0.946,2.239-1.333      c0.751-0.434,1.539-0.776,2.323-1.103c0.772-0.362,1.572-0.616,2.359-0.875c0.78-0.284,1.571-0.476,2.349-0.663      c0.774-0.205,1.539-0.37,2.299-0.473c0.757-0.114,1.49-0.262,2.214-0.312c0.72-0.067,1.421-0.133,2.098-0.196      c0.679-0.032,1.336-0.027,1.963-0.042c1.254-0.055,2.403,0.036,3.416,0.101c1.013,0.038,1.891,0.155,2.612,0.261      c1.442,0.198,2.255,0.349,2.255,0.349s-0.827,0.136-2.257,0.306c-0.715,0.073-1.58,0.191-2.565,0.343      c-0.985,0.148-2.094,0.292-3.286,0.523c-1.199,0.192-2.476,0.481-3.818,0.778c-0.677,0.126-1.347,0.349-2.039,0.537      c-0.345,0.094-0.695,0.19-1.047,0.286c-0.345,0.115-0.694,0.231-1.045,0.348c-1.41,0.448-2.828,1.004-4.214,1.651l-1.041,0.492      c-0.342,0.175-0.671,0.373-1.01,0.555c-0.688,0.351-1.329,0.776-1.969,1.202c-0.666,0.391-1.237,0.904-1.862,1.346      c-0.56,0.514-1.181,0.963-1.697,1.512c-1.106,1.028-2.028,2.196-2.896,3.35c-0.831,1.181-1.553,2.392-2.162,3.591      c-0.567,1.217-1.072,2.398-1.462,3.527c-0.363,1.133-0.689,2.191-0.908,3.149c-0.213,0.958-0.396,1.806-0.502,2.512      C271.927,277.375,271.874,278.207,271.874,278.207z" style="fill:#B95429;"/></g><g><path d="M347.077,262.804c0,0-0.09,0.643-0.475,1.714c-0.198,0.53-0.443,1.183-0.813,1.886      c-0.188,0.353-0.388,0.728-0.598,1.124c-0.225,0.389-0.507,0.766-0.78,1.18c-0.267,0.42-0.58,0.83-0.927,1.237      c-0.345,0.409-0.692,0.848-1.093,1.256c-0.83,0.783-1.689,1.655-2.745,2.347c-0.991,0.791-2.16,1.375-3.34,1.988      c-0.29,0.165-0.596,0.295-0.912,0.402l-0.942,0.345c-0.636,0.208-1.259,0.488-1.912,0.634c-0.657,0.135-1.314,0.269-1.968,0.403      c-0.653,0.146-1.307,0.259-1.963,0.272c-0.654,0.044-1.302,0.078-1.942,0.103c-0.319,0.014-0.637,0.028-0.952,0.041      c-0.314,0-0.624-0.046-0.932-0.068c-1.23-0.113-2.418-0.207-3.525-0.378c-1.095-0.248-2.12-0.513-3.058-0.761      c-0.468-0.13-0.921-0.223-1.339-0.367c-0.41-0.166-0.8-0.324-1.166-0.472c-0.731-0.288-1.356-0.571-1.87-0.797      c-1.026-0.456-1.592-0.751-1.592-0.751s0.655,0.021,1.765,0.118c0.554,0.051,1.226,0.104,1.983,0.201      c0.378,0.044,0.78,0.092,1.204,0.142c0.426,0.02,0.873,0.04,1.34,0.062c0.932,0.036,1.932,0.079,2.98,0.156      c1.044-0.024,2.144-0.049,3.283-0.075c0.282-0.008,0.568-0.002,0.853-0.02c0.283-0.036,0.568-0.072,0.855-0.108      c0.573-0.075,1.151-0.142,1.735-0.2c0.29-0.039,0.588-0.043,0.874-0.11l0.859-0.197l1.729-0.377      c0.579-0.117,1.117-0.36,1.677-0.531c0.543-0.214,1.135-0.308,1.643-0.585c0.521-0.247,1.045-0.481,1.566-0.708      c0.538-0.2,0.983-0.548,1.476-0.802c0.99-0.51,1.836-1.171,2.691-1.75c0.421-0.297,0.779-0.648,1.168-0.945      c0.391-0.297,0.751-0.605,1.069-0.931c0.67-0.622,1.26-1.224,1.77-1.782c0.502-0.56,0.935-1.067,1.279-1.496      c0.332-0.437,0.614-0.775,0.778-1.022C346.983,262.936,347.077,262.804,347.077,262.804z" style="fill:#B95429;"/></g><g><path d="M311.01,262.804c0,0,0.31,0.247,0.759,0.759c0.452,0.51,1.036,1.289,1.603,2.319      c0.551,1.033,1.079,2.325,1.363,3.817c0.285,1.485,0.329,3.181-0.073,4.842c-0.197,0.827-0.502,1.638-0.899,2.382      c-0.209,0.367-0.403,0.738-0.661,1.061c-0.238,0.336-0.481,0.659-0.763,0.939c-0.264,0.296-0.537,0.567-0.832,0.802      c-0.281,0.251-0.569,0.472-0.867,0.663c-0.572,0.413-1.171,0.694-1.709,0.949c-1.108,0.46-2.062,0.679-2.739,0.768      c-0.678,0.088-1.065,0.097-1.065,0.097s0.29-0.28,0.798-0.696c0.261-0.195,0.544-0.486,0.884-0.766      c0.345-0.277,0.682-0.649,1.07-0.998c0.361-0.382,0.767-0.764,1.121-1.217c0.188-0.217,0.378-0.435,0.54-0.682      c0.175-0.236,0.356-0.469,0.503-0.73c0.336-0.492,0.591-1.041,0.846-1.59c0.226-0.564,0.442-1.14,0.569-1.751      c0.611-2.414,0.368-5.168,0.109-7.295c-0.133-1.066-0.281-1.981-0.385-2.633C311.072,263.183,311.01,262.804,311.01,262.804z" style="fill:#B95429;"/></g><g><path d="M340.081,244.126c0,0-0.088,0.313-0.358,0.803c-0.142,0.234-0.304,0.544-0.546,0.839      c-0.228,0.314-0.505,0.653-0.839,0.991c-0.668,0.673-1.543,1.381-2.596,1.94c-0.517,0.302-1.085,0.542-1.671,0.763      c-0.581,0.242-1.206,0.365-1.818,0.539c-0.625,0.107-1.252,0.209-1.871,0.263c-0.621,0.027-1.233,0.029-1.82,0.008      c-0.587-0.058-1.15-0.138-1.677-0.223c-0.527-0.096-1.013-0.261-1.458-0.393c-0.893-0.261-1.585-0.66-2.064-0.921      c-0.477-0.268-0.734-0.458-0.734-0.458s0.32-0.091,0.85-0.188c0.265-0.046,0.585-0.11,0.941-0.146      c0.356-0.033,0.759-0.125,1.187-0.189c0.428-0.073,0.886-0.106,1.362-0.185c0.476-0.084,0.972-0.161,1.481-0.217      c0.505-0.093,1.021-0.197,1.546-0.261c0.517-0.102,1.042-0.207,1.567-0.311c0.514-0.134,1.044-0.221,1.548-0.362      c0.506-0.138,1.015-0.25,1.496-0.403c0.978-0.265,1.886-0.576,2.692-0.848c0.811-0.266,1.487-0.539,1.989-0.723      C339.793,244.241,340.081,244.126,340.081,244.126z" style="fill:#B95429;"/></g></g><path d="M389.891,249.745    c0,47.918-44.575,91.02-44.575,91.02c-11.577,11.191-21.044,33.509-21.044,49.601v22.893c0,4.274-0.93,8.349-2.602,12.016    c-3.082,6.781-8.672,12.204-15.579,15.046c-3.417,1.411-7.157,2.194-11.076,2.194h-64.772c-11.807,0-22.047-7.095-26.644-17.23    c-1.682-3.678-2.612-7.742-2.612-12.027v-22.893c0-16.091-9.467-38.41-21.033-49.601c0,0-44.585-43.101-44.585-91.02    c0-67.332,52.296-122.45,118.5-126.943c2.894-0.209,5.82-0.313,8.767-0.313c6.395,0,12.674,0.47,18.818,1.379    C342.808,132.969,389.891,185.861,389.891,249.745z" style="opacity:0.3;fill:#E7D787;adobe-blending-mode:softLight;enable-background:new    ;"/><path d="M230.243,442.515    c-16.091,0-29.257-13.165-29.257-29.257v-22.893c0-16.091-9.467-38.41-21.033-49.601c0,0-44.585-43.101-44.585-91.02    c0-70.279,56.977-127.256,127.267-127.256c7.387,0,14.639,0.627,21.681,1.849c-54.271,10.606-95.628,65.901-95.628,132.522    c0,50.593,33.08,87.102,33.08,87.102C232.186,355.77,230.243,442.515,230.243,442.515z" style="opacity:0.5;fill:#F4B93D;adobe-blending-mode:multiply;enable-background:new    ;"/><path d="M281.453,123.868    c-3.336-0.667,16.501,9.584,36.264,32.051c-4.645-1.031-9.021-0.571-12.621,1.657c-10.811,6.69-10.542,26.713,0.603,44.722    c11.144,18.009,28.943,27.185,39.754,20.495c1.997-1.236,3.614-2.93,4.856-4.979c2.384,10.147,3.743,21.154,3.659,33.06    c-0.345,48.554-39.726,92.232-39.726,92.232c-23.243,20.729-19.226,99.41-19.226,99.41c3.918,0,7.659-0.784,11.076-2.194    c6.374-5.423-4.573-73.236,29.267-97.216c0,0,39.727-43.676,39.727-92.232C375.085,187.324,334.669,134.516,281.453,123.868z" style="opacity:0.7;fill:#FFEC95;adobe-blending-mode:screen;enable-background:new    ;"/><path d="M203.599,425.285    c0.094-0.01,0.178-0.01,0.272-0.01h117.8c-3.082,6.781-8.672,12.204-15.579,15.046c-3.417,1.411-7.157,2.194-11.076,2.194h-64.772    C218.436,442.515,208.196,435.421,203.599,425.285z" style="opacity:0.2;adobe-blending-mode:multiply;enable-background:new    ;"/><path d="M326.717,459.934    c-1.223,1.296-2.759,2.069-4.42,2.069H203.871c-1.881,0-3.605-0.993-4.9-2.612c1.306-1.536,3.25-2.497,5.402-2.497h116.515    C323.29,456.893,325.422,458.095,326.717,459.934z" style="opacity:0.2;adobe-blending-mode:multiply;enable-background:new    ;"/><path d="M329.612,437.698v11.88c0,4.044-3.281,7.314-7.314,7.314H203.871c-4.044,0-7.314-3.27-7.314-7.314    v-11.88c0-4.044,3.27-7.314,7.314-7.314h118.427C326.331,430.384,329.612,433.655,329.612,437.698z" style="fill:#948DB7;"/><path d="M233.681,430.384v53.017    h-29.309c-3.971,0-7.199-3.281-7.199-7.314v-11.88c0-1.849,0.669-3.532,1.797-4.817c1.306-1.536,3.25-2.497,5.402-2.497h-0.502    c-4.044,0-7.314-3.27-7.314-7.314v-11.88c0-4.044,3.27-7.314,7.314-7.314h29.811V430.384z" style="opacity:0.3;fill:#948DB7;adobe-blending-mode:multiply;enable-background:new    ;"/><rect height="53.017" style="opacity:0.4;fill:#948DB7;adobe-blending-mode:screen;enable-background:new    ;" width="14.064" x="294.911" y="430.384"/><path d="M460.775,247.703c0,4.541-3.406,8.256-7.568,8.256H420.25c-4.163,0-7.568-3.715-7.568-8.256    s3.406-8.256,7.568-8.256h32.957C457.369,239.447,460.775,243.162,460.775,247.703z" style="fill:#E7D787;"/><path d="M117.417,247.703c0,4.541-3.045,8.256-6.767,8.256H81.18c-3.722,0-6.767-3.715-6.767-8.256    s3.045-8.256,6.767-8.256h29.469C114.371,239.447,117.417,243.162,117.417,247.703z" style="fill:#E7D787;"/><path d="M396.766,379.42c-3.211,3.211-7.773,3.903-10.138,1.538l-18.725-18.725    c-2.365-2.365-1.673-6.927,1.538-10.138s7.773-3.903,10.138-1.538l18.725,18.725C400.669,371.647,399.977,376.209,396.766,379.42z    " style="fill:#E7D787;"/><path d="M160.657,143.311c-3.211,3.211-7.991,3.684-10.623,1.053l-20.838-20.838    c-2.632-2.632-2.158-7.412,1.053-10.623c3.211-3.211,7.991-3.684,10.623-1.053l20.838,20.838    C164.342,135.32,163.868,140.101,160.657,143.311z" style="fill:#E7D787;"/><path d="M403.948,108.804c3.211,3.211,3.394,8.281,0.407,11.268l-23.647,23.647    c-2.987,2.987-8.057,2.803-11.268-0.407c-3.211-3.211-3.394-8.281-0.407-11.268l23.647-23.647    C395.667,105.409,400.738,105.593,403.948,108.804z" style="fill:#E7D787;"/><path d="M160.657,352.095c3.211,3.211,3.684,7.991,1.053,10.623l-20.838,20.838    c-2.632,2.632-7.412,2.158-10.623-1.053s-3.684-7.991-1.053-10.623l20.838-20.838C152.666,348.41,157.446,348.884,160.657,352.095    z" style="fill:#E7D787;"/><path d="M265.049,100.071c-4.541,0-8.256-3.045-8.256-6.767V63.835c0-3.722,3.715-6.767,8.256-6.767    c4.541,0,8.256,3.045,8.256,6.767v29.469C273.305,97.026,269.59,100.071,265.049,100.071z" style="fill:#E7D787;"/></g></g></svg>