<?xml version="1.0" encoding="UTF-8" standalone="no"?>
<!-- Created with Inkscape (http://www.inkscape.org/) -->

<svg
   xmlns:dc="http://purl.org/dc/elements/1.1/"
   xmlns:cc="http://creativecommons.org/ns#"
   xmlns:rdf="http://www.w3.org/1999/02/22-rdf-syntax-ns#"
   xmlns:svg="http://www.w3.org/2000/svg"
   xmlns="http://www.w3.org/2000/svg"
   xmlns:sodipodi="http://sodipodi.sourceforge.net/DTD/sodipodi-0.dtd"
   xmlns:inkscape="http://www.inkscape.org/namespaces/inkscape"
   width="56.302975mm"
   height="59.125198mm"
   viewBox="0 0 199.49873 209.49873"
   id="svg2"
   version="1.1"
   inkscape:version="0.91 r13725"
   sodipodi:docname="rect_dontknow.svg">
  <defs
     id="defs4">
    <inkscape:perspective
       sodipodi:type="inkscape:persp3d"
       inkscape:vp_x="0 : 526.18108 : 1"
       inkscape:vp_y="0 : 999.99996 : 0"
       inkscape:vp_z="744.09447 : 526.18108 : 1"
       inkscape:persp3d-origin="372.04723 : 350.78739 : 1"
       id="perspective8070" />
  </defs>
  <sodipodi:namedview
     id="base"
     pagecolor="#ffffff"
     bordercolor="#666666"
     borderopacity="1.0"
     inkscape:pageopacity="0.0"
     inkscape:pageshadow="2"
     inkscape:zoom="1"
     inkscape:cx="57.667902"
     inkscape:cy="7.66721"
     inkscape:document-units="px"
     inkscape:current-layer="layer1"
     showgrid="true"
     fit-margin-top="0"
     fit-margin-left="0"
     fit-margin-right="0"
     fit-margin-bottom="0"
     inkscape:window-width="1873"
     inkscape:window-height="1176"
     inkscape:window-x="1967"
     inkscape:window-y="24"
     inkscape:window-maximized="1">
    <inkscape:grid
       type="xygrid"
       id="grid8068"
       originx="0"
       originy="-6.8484329e-06" />
  </sodipodi:namedview>
  <metadata
     id="metadata7">
    <rdf:RDF>
      <cc:Work
         rdf:about="">
        <dc:format>image/svg+xml</dc:format>
        <dc:type
           rdf:resource="http://purl.org/dc/dcmitype/StillImage" />
        <dc:title />
      </cc:Work>
    </rdf:RDF>
  </metadata>
  <g
     inkscape:label="Ebene 1"
     inkscape:groupmode="layer"
     id="layer1"
     transform="translate(0,-842.86346)">
    <rect
       style="fill:#212121;fill-opacity:1;fill-rule:evenodd;stroke:none;stroke-width:0;stroke-linecap:butt;stroke-linejoin:miter;stroke-miterlimit:4;stroke-dasharray:none;stroke-opacity:1"
       id="rect8086"
       width="199.49873"
       height="199.49873"
       x="0"
       y="852.86346"
       ry="19.749413" />
    <rect
       style="fill:#9e9e9e;fill-opacity:1;fill-rule:evenodd;stroke:none;stroke-width:0;stroke-linecap:butt;stroke-linejoin:miter;stroke-miterlimit:4;stroke-dasharray:none;stroke-opacity:1"
       id="rect8086-3"
       width="199.49873"
       height="199.49873"
       x="0"
       y="842.86346"
       ry="19.749413" />
    <circle
       style="opacity:0.98000004;fill:#ffffff;fill-opacity:1;stroke:none;stroke-width:5;stroke-linecap:butt;stroke-linejoin:round;stroke-miterlimit:4;stroke-dasharray:none;stroke-dashoffset:0;stroke-opacity:1"
       id="path8327"
       cx="100"
       cy="942.36218"
       r="50" />
    <g
       id="Icons with numbers"
       transform="matrix(8.75,0,0,8.75,30,872.36219)"
       style="fill:#9e9e9e;fill-opacity:1;fill-rule:evenodd;stroke:none;stroke-width:1;stroke-opacity:1">
      <g
         transform="translate(-48,-432)"
         id="Group"
         style="fill:#9e9e9e;fill-opacity:1;stroke:none;stroke-opacity:1">
        <path
           id="Oval 318"
           d="m 54.879684,443.0591 0,1.9409 2.351085,0 0,-1.9409 z M 56,448 c -4.418278,0 -8,-3.58172 -8,-8 0,-4.41828 3.581722,-8 8,-8 4.418278,0 8,3.58172 8,8 0,4.41828 -3.581722,8 -8,8 z m -2.42998,-12.48959 c -0.983569,0.5328 -1.506903,1.4372 -1.57002,2.71323 l 2.280079,0 c 0,-0.37162 0.127546,-0.72979 0.382643,-1.07455 0.255097,-0.34475 0.687702,-0.51712 1.29783,-0.51712 0.620648,0 1.047994,0.13991 1.282052,0.41974 0.234057,0.27983 0.351084,0.58988 0.351084,0.93016 0,0.2955 -0.105193,0.56637 -0.315582,0.81262 l -0.457593,0.39624 -0.575937,0.38281 c -0.56805,0.37609 -0.920447,0.70853 -1.057199,0.99731 -0.136753,0.28879 -0.220907,0.81151 -0.252466,1.56817 l 2.130178,0 c 0.0053,-0.35818 0.03945,-0.62234 0.102564,-0.79248 0.09994,-0.26864 0.302431,-0.50369 0.607495,-0.70517 l 0.560158,-0.36938 c 0.56805,-0.37609 0.952004,-0.68502 1.151874,-0.92679 C 59.829062,438.94672 60,438.45646 60,437.87441 60,436.92522 59.606842,436.20887 58.820513,435.72532 58.034184,435.24177 57.046686,435 55.857988,435 c -0.904672,0 -1.667321,0.17014 -2.287968,0.51041 z m 0,0"
           inkscape:connector-curvature="0"
           style="fill:#9e9e9e;fill-opacity:1;stroke:none;stroke-opacity:1" />
      </g>
    </g>
  </g>
</svg>
