<?xml version="1.0" encoding="UTF-8" standalone="no"?>
<!-- Created with Inkscape (http://www.inkscape.org/) -->

<svg
   xmlns:dc="http://purl.org/dc/elements/1.1/"
   xmlns:cc="http://creativecommons.org/ns#"
   xmlns:rdf="http://www.w3.org/1999/02/22-rdf-syntax-ns#"
   xmlns:svg="http://www.w3.org/2000/svg"
   xmlns="http://www.w3.org/2000/svg"
   xmlns:sodipodi="http://sodipodi.sourceforge.net/DTD/sodipodi-0.dtd"
   xmlns:inkscape="http://www.inkscape.org/namespaces/inkscape"
   width="56.302975mm"
   height="59.125198mm"
   viewBox="0 0 199.49873 209.49873"
   id="svg2"
   version="1.1"
   inkscape:version="0.91 r13725"
   sodipodi:docname="rect_support.svg">
  <defs
     id="defs4">
    <inkscape:perspective
       sodipodi:type="inkscape:persp3d"
       inkscape:vp_x="0 : 526.18108 : 1"
       inkscape:vp_y="0 : 999.99996 : 0"
       inkscape:vp_z="744.09447 : 526.18108 : 1"
       inkscape:persp3d-origin="372.04723 : 350.78739 : 1"
       id="perspective8070" />
  </defs>
  <sodipodi:namedview
     id="base"
     pagecolor="#ffffff"
     bordercolor="#666666"
     borderopacity="1.0"
     inkscape:pageopacity="0.0"
     inkscape:pageshadow="2"
     inkscape:zoom="1.4"
     inkscape:cx="313.60835"
     inkscape:cy="335.89055"
     inkscape:document-units="px"
     inkscape:current-layer="layer1"
     showgrid="true"
     fit-margin-top="0"
     fit-margin-left="0"
     fit-margin-right="0"
     fit-margin-bottom="0"
     inkscape:window-width="1873"
     inkscape:window-height="1176"
     inkscape:window-x="3887"
     inkscape:window-y="24"
     inkscape:window-maximized="1">
    <inkscape:grid
       type="xygrid"
       id="grid8068"
       originx="0"
       originy="-6.8484329e-06" />
  </sodipodi:namedview>
  <metadata
     id="metadata7">
    <rdf:RDF>
      <cc:Work
         rdf:about="">
        <dc:format>image/svg+xml</dc:format>
        <dc:type
           rdf:resource="http://purl.org/dc/dcmitype/StillImage" />
        <dc:title></dc:title>
      </cc:Work>
    </rdf:RDF>
  </metadata>
  <g
     inkscape:label="Ebene 1"
     inkscape:groupmode="layer"
     id="layer1"
     transform="translate(0,-842.86346)">
    <rect
       style="fill:#1b5e20;fill-opacity:1;fill-rule:evenodd;stroke:none;stroke-width:0;stroke-linecap:butt;stroke-linejoin:miter;stroke-miterlimit:4;stroke-dasharray:none;stroke-opacity:1"
       id="rect8086"
       width="199.49873"
       height="199.49873"
       x="0"
       y="852.86346"
       ry="19.749413" />
    <rect
       style="fill:#4caf50;fill-opacity:1;fill-rule:evenodd;stroke:none;stroke-width:0;stroke-linecap:butt;stroke-linejoin:miter;stroke-miterlimit:4;stroke-dasharray:none;stroke-opacity:1"
       id="rect8086-3"
       width="199.49873"
       height="199.49873"
       x="0"
       y="842.86346"
       ry="19.749413" />
    <path
       id="path8106"
       d="m 145.73261,951.0894 c 1.28696,1.54878 2.09348,3.53087 2.09348,5.72184 0,3.24645 -1.72174,6.05959 -4.26739,7.60837 1.28696,1.55101 2.09348,3.5331 2.09348,5.72409 0,3.24867 -1.72391,6.05737 -4.26739,7.60837 1.28696,1.54879 2.09348,3.53088 2.09348,5.72184 0,4.90856 -3.89348,8.88829 -8.69566,8.88829 l -50.87826,0 0,-0.0533 c -3.48261,-0.15332 -6.56087,-1.83099 -8.6413,-4.39082 l -14.39348,0 C 54.86522,987.91805 50,975.97886 50,961.25316 c 0,-14.72567 4.86522,-26.66487 10.86957,-26.66487 l 18.23261,0 16.55,-24.43836 0,-11.11036 c 1.17608,-7.2484 6.52174,-6.66622 6.52174,-6.66622 4.80869,0 6.52174,2.22207 6.52174,2.22207 6.52174,6.66622 6.52174,17.77659 6.52174,17.77659 0,14.68345 -6.52174,22.22072 -6.52174,22.22072 l 32.60869,0 c 4.80218,0 8.69565,3.97973 8.69565,8.88829 0,3.24867 -1.72391,6.06182 -4.26739,7.61282 z M 60.86957,939.02799 c -1.67609,0 -6.52174,7.63949 -6.52174,22.22073 0,14.58126 4.84565,22.22075 6.52174,22.22075 l 12.12608,0 c -0.1217,-0.43998 -0.2587,-0.87328 -0.3304,-1.33325 -1.28696,-6.38179 -3.1,-16.87222 -3.1,-25.33165 0,-8.98384 4.78913,-15.32563 6.52174,-17.77658 l 0.0044,0 0,0 -15.22174,0 z m 80.43478,0.004 -42.25869,0 6.39347,-7.38839 c 0.054,-0.0644 5.43044,-6.63066 5.43044,-19.26315 0,-0.0933 -0.1174,-9.40381 -5.24783,-14.64568 l -0.2544,-0.23331 c -1.46304,-0.93994 -3.47608,-0.69773 -3.47608,-0.69773 -1.1587,0 -1.67392,1.52434 -1.89131,2.63315 l 0,12.09696 -20.38913,30.09353 -0.237,0.33776 c -1.77391,2.49094 -5.46086,7.67282 -5.46086,14.839 0,8.25278 1.88478,18.85209 3.03913,24.60503 0.5826,3.57976 3.5826,6.29514 7.1413,6.4529 l 50.68913,0.0556 c 2.39783,0 4.34783,-1.99319 4.34783,-4.44414 0,-1.29769 -0.5783,-2.26429 -1.0587,-2.84648 l -3.32391,-4.00195 4.4087,-2.69093 c 1.34565,-0.81994 2.14782,-2.23763 2.14782,-3.79085 0,-1.29772 -0.5783,-2.26876 -1.06087,-2.85095 l -3.32174,-4.00639 4.41305,-2.68649 c 1.3413,-0.8155 2.14348,-2.23318 2.14348,-3.78863 0,-1.29769 -0.5783,-2.26429 -1.0587,-2.84648 l -3.32391,-4.00195 4.40869,-2.69093 c 1.34566,-0.81995 2.14783,-2.23763 2.14783,-3.79308 0,-2.45317 -1.95,-4.44637 -4.34783,-4.44637 z m -77.17391,39.99289 c -1.8,0 -3.26087,-1.49323 -3.26087,-3.33311 0,-1.83988 1.46087,-3.33311 3.26087,-3.33311 1.8,0 3.26087,1.49323 3.26087,3.33311 0,1.83988 -1.46087,3.33311 -3.26087,3.33311 z"
       inkscape:connector-curvature="0"
       style="clip-rule:evenodd;fill:#ffffff;fill-opacity:1;fill-rule:evenodd;stroke:none;stroke-opacity:1" />
  </g>
</svg>
