<?xml version="1.0" encoding="UTF-8" standalone="no"?>
<!-- Created with Inkscape (http://www.inkscape.org/) -->

<svg
   xmlns:dc="http://purl.org/dc/elements/1.1/"
   xmlns:cc="http://creativecommons.org/ns#"
   xmlns:rdf="http://www.w3.org/1999/02/22-rdf-syntax-ns#"
   xmlns:svg="http://www.w3.org/2000/svg"
   xmlns="http://www.w3.org/2000/svg"
   xmlns:sodipodi="http://sodipodi.sourceforge.net/DTD/sodipodi-0.dtd"
   xmlns:inkscape="http://www.inkscape.org/namespaces/inkscape"
   width="56.302975mm"
   height="59.125198mm"
   viewBox="0 0 199.49873 209.49873"
   id="svg2"
   version="1.1"
   inkscape:version="0.91 r13725"
   sodipodi:docname="rect_attack.svg">
  <defs
     id="defs4">
    <inkscape:perspective
       sodipodi:type="inkscape:persp3d"
       inkscape:vp_x="0 : 526.18108 : 1"
       inkscape:vp_y="0 : 999.99996 : 0"
       inkscape:vp_z="744.09447 : 526.18108 : 1"
       inkscape:persp3d-origin="372.04723 : 350.78739 : 1"
       id="perspective8070" />
  </defs>
  <sodipodi:namedview
     id="base"
     pagecolor="#ffffff"
     bordercolor="#666666"
     borderopacity="1.0"
     inkscape:pageopacity="0.0"
     inkscape:pageshadow="2"
     inkscape:zoom="1.4"
     inkscape:cx="95.751207"
     inkscape:cy="277.31912"
     inkscape:document-units="px"
     inkscape:current-layer="layer1"
     showgrid="true"
     fit-margin-top="0"
     fit-margin-left="0"
     fit-margin-right="0"
     fit-margin-bottom="0"
     inkscape:window-width="1873"
     inkscape:window-height="1176"
     inkscape:window-x="3887"
     inkscape:window-y="24"
     inkscape:window-maximized="1">
    <inkscape:grid
       type="xygrid"
       id="grid8068"
       originx="0"
       originy="-6.8484329e-06" />
  </sodipodi:namedview>
  <metadata
     id="metadata7">
    <rdf:RDF>
      <cc:Work
         rdf:about="">
        <dc:format>image/svg+xml</dc:format>
        <dc:type
           rdf:resource="http://purl.org/dc/dcmitype/StillImage" />
        <dc:title />
      </cc:Work>
    </rdf:RDF>
  </metadata>
  <g
     inkscape:label="Ebene 1"
     inkscape:groupmode="layer"
     id="layer1"
     transform="translate(0,-842.86346)">
    <rect
       style="fill:#bf360c;fill-opacity:1;fill-rule:evenodd;stroke:none;stroke-width:0;stroke-linecap:butt;stroke-linejoin:miter;stroke-miterlimit:4;stroke-dasharray:none;stroke-opacity:1"
       id="rect8086"
       width="199.49873"
       height="199.49873"
       x="0"
       y="852.86346"
       ry="19.749413" />
    <rect
       style="fill:#ff5722;fill-opacity:1;fill-rule:evenodd;stroke:none;stroke-width:0;stroke-linecap:butt;stroke-linejoin:miter;stroke-miterlimit:4;stroke-dasharray:none;stroke-opacity:1"
       id="rect8086-3"
       width="199.49873"
       height="199.49873"
       x="0"
       y="842.86346"
       ry="19.749413" />
    <path
       id="path8135"
       d="m 147.82609,927.91232 c 0,2.19091 -0.80652,4.17295 -2.09348,5.7217 2.54348,1.5532 4.26739,4.36405 4.26739,7.61043 0,4.91066 -3.89348,8.8903 -8.69565,8.8903 l -32.6087,0 c 0,0 6.52174,7.5371 6.52174,22.22022 0,0 0,11.1101 -6.52174,17.77395 0,0 -1.71304,2.22202 -6.52174,2.22202 0,0 -5.345649,0.58439 -6.521736,-6.66607 l 0,-11.10788 -16.55,-24.43779 -18.232609,0 C 54.865217,950.1392 50,938.20028 50,923.47494 c 0,-14.72533 4.865217,-26.66425 10.869565,-26.66425 l 14.393478,0 c 2.080435,-2.55755 5.158696,-4.23518 8.641305,-4.39072 l 0,-0.0533 50.878262,-0.004 c 4.80217,0 8.69565,3.97964 8.69565,8.88808 0,2.19092 -0.80652,4.17296 -2.09348,5.72171 2.54348,1.55319 4.26739,4.35961 4.26739,7.6082 0,2.19091 -0.80652,4.17296 -2.09347,5.72393 2.54565,1.55097 4.26739,4.36183 4.26739,7.6082 z M 60.869565,901.25473 c -1.676087,0 -6.521739,7.63931 -6.521739,22.22021 0,14.58091 4.845652,22.22022 6.521739,22.22022 l 15.221739,0 0,0 -0.0043,0 c -1.732609,-2.45089 -6.52174,-8.79254 -6.52174,-17.77618 0,-8.45923 1.813044,-18.94939 3.1,-25.33104 0.07174,-0.45996 0.21087,-0.89325 0.330435,-1.33321 l -12.126087,0 z m 82.634785,36.19673 -4.4087,-2.69087 3.32392,-4.00186 c 0.48043,-0.58217 1.05869,-1.54875 1.05869,-2.84641 0,-1.55542 -0.80217,-2.97307 -2.14348,-3.78855 l -4.41304,-2.68642 3.32174,-4.00631 c 0.48261,-0.58217 1.06087,-1.55319 1.06087,-2.85085 0,-1.55319 -0.80218,-2.97084 -2.14783,-3.79077 l -4.40869,-2.69087 3.32391,-4.00186 c 0.48043,-0.58217 1.05869,-1.54874 1.05869,-2.84641 0,-2.45088 -1.95,-4.44404 -4.34782,-4.44404 l -50.686958,0.0556 c -3.558695,0.15777 -6.560869,2.87308 -7.141304,6.45275 -1.156522,5.75282 -3.041305,16.35186 -3.041305,24.60444 0,7.16602 3.686957,12.34778 5.46087,14.83644 l 0.236957,0.33775 20.38913,30.09506 0,12.09446 c 0.21957,1.10879 0.73261,2.63531 1.8913,2.63531 0,0 2.01305,0.24221 3.47609,-0.69771 l 0.25435,-0.23331 c 5.13043,-5.24175 5.24783,-14.55424 5.24783,-14.64757 0,-12.63219 -5.37609,-19.19826 -5.43044,-19.26048 l -6.393478,-7.38822 42.258698,0 c 2.39782,0 4.34782,-1.99315 4.34782,-4.44626 0,-1.55542 -0.80217,-2.97307 -2.14782,-3.79299 z M 64.130435,912.36484 c -1.8,0 -3.26087,-1.49098 -3.26087,-3.33304 0,-1.84205 1.46087,-3.33303 3.26087,-3.33303 1.8,0 3.260869,1.49098 3.260869,3.33303 0,1.84206 -1.460869,3.33304 -3.260869,3.33304 z"
       inkscape:connector-curvature="0"
       style="clip-rule:evenodd;fill-rule:evenodd;fill:#ffffff;fill-opacity:1" />
  </g>
</svg>
