<?xml version="1.0" encoding="UTF-8" standalone="no"?>
<!-- Created with Inkscape (http://www.inkscape.org/) -->

<svg
   xmlns:dc="http://purl.org/dc/elements/1.1/"
   xmlns:cc="http://creativecommons.org/ns#"
   xmlns:rdf="http://www.w3.org/1999/02/22-rdf-syntax-ns#"
   xmlns:svg="http://www.w3.org/2000/svg"
   xmlns="http://www.w3.org/2000/svg"
   xmlns:sodipodi="http://sodipodi.sourceforge.net/DTD/sodipodi-0.dtd"
   xmlns:inkscape="http://www.inkscape.org/namespaces/inkscape"
   width="56.302975mm"
   height="59.125198mm"
   viewBox="0 0 199.49873 209.49873"
   id="svg2"
   version="1.1"
   inkscape:version="0.91 r13725"
   sodipodi:docname="rect_back.svg">
  <defs
     id="defs4">
    <inkscape:perspective
       sodipodi:type="inkscape:persp3d"
       inkscape:vp_x="0 : 526.18108 : 1"
       inkscape:vp_y="0 : 999.99996 : 0"
       inkscape:vp_z="744.09447 : 526.18108 : 1"
       inkscape:persp3d-origin="372.04723 : 350.78739 : 1"
       id="perspective8070" />
  </defs>
  <sodipodi:namedview
     id="base"
     pagecolor="#ffffff"
     bordercolor="#666666"
     borderopacity="1.0"
     inkscape:pageopacity="0.0"
     inkscape:pageshadow="2"
     inkscape:zoom="1"
     inkscape:cx="2.6679024"
     inkscape:cy="9.66721"
     inkscape:document-units="px"
     inkscape:current-layer="layer1"
     showgrid="true"
     fit-margin-top="0"
     fit-margin-left="0"
     fit-margin-right="0"
     fit-margin-bottom="0"
     inkscape:window-width="1873"
     inkscape:window-height="1176"
     inkscape:window-x="3887"
     inkscape:window-y="24"
     inkscape:window-maximized="1">
    <inkscape:grid
       type="xygrid"
       id="grid8068"
       originx="0"
       originy="-6.8484329e-06" />
  </sodipodi:namedview>
  <metadata
     id="metadata7">
    <rdf:RDF>
      <cc:Work
         rdf:about="">
        <dc:format>image/svg+xml</dc:format>
        <dc:type
           rdf:resource="http://purl.org/dc/dcmitype/StillImage" />
        <dc:title></dc:title>
      </cc:Work>
    </rdf:RDF>
  </metadata>
  <g
     inkscape:label="Ebene 1"
     inkscape:groupmode="layer"
     id="layer1"
     transform="translate(0,-842.86346)">
    <rect
       style="fill:#212121;fill-opacity:1;fill-rule:evenodd;stroke:none;stroke-width:0;stroke-linecap:butt;stroke-linejoin:miter;stroke-miterlimit:4;stroke-dasharray:none;stroke-opacity:1"
       id="rect8086"
       width="199.49873"
       height="199.49873"
       x="0"
       y="852.86346"
       ry="19.749413" />
    <rect
       style="fill:#9e9e9e;fill-opacity:1;fill-rule:evenodd;stroke:none;stroke-width:0;stroke-linecap:butt;stroke-linejoin:miter;stroke-miterlimit:4;stroke-dasharray:none;stroke-opacity:1"
       id="rect8086-3"
       width="199.49873"
       height="199.49873"
       x="0"
       y="842.86346"
       ry="19.749413" />
    <g
       id="g8262"
       transform="matrix(3.1248411,0,0,3.7179333,50.003143,881.20714)"
       style="fill:#ffffff;fill-opacity:1">
      <path
         id="Arrow_Left_1_"
         d="M 31.866,29.046 C 31.916,28.71 32.975,20.636 28.227,15.08 25.31,11.666 20.809,9.797 14.997,9.612 L 14.966,3.999 C 14.966,3.613 14.743,3.262 14.395,3.096 14.046,2.933 13.633,2.98 13.334,3.224 L 0.367,13.866 C 0.135,14.056 0,14.34 -0.001,14.64 c -0.001,0.3 0.133,0.584 0.365,0.774 l 12.968,10.743 c 0.298,0.247 0.715,0.298 1.061,0.132 0.351,-0.165 0.573,-0.518 0.573,-0.904 l 0.031,-5.739 c 14.009,-0.01 15.005,8.966 15.039,9.337 0.043,0.504 0.362,0.897 0.868,0.913 0.012,10e-4 0.023,10e-4 0.034,10e-4 0.495,0 0.854,-0.361 0.928,-0.851 z M 13.261,17.922 c -0.188,0.188 -0.294,0.442 -0.294,0.708 l 0,4.638 -10.389,-8.622 10.389,-8.542 0,4.493 c 0,0.553 0.447,1 1,1 5.69,0 10.037,1.648 12.735,4.776 2.029,2.354 2.962,5.235 3.281,7.626 -2.184,-2.984 -6.008,-6.363 -16.015,-6.369 0,0 -10e-4,0 -0.002,0 -0.264,0 -0.518,0.105 -0.705,0.292 z"
         inkscape:connector-curvature="0"
         style="fill:#ffffff;fill-opacity:1" />
      <g
         id="g8244"
         style="fill:#ffffff;fill-opacity:1" />
      <g
         id="g8246"
         style="fill:#ffffff;fill-opacity:1" />
      <g
         id="g8248"
         style="fill:#ffffff;fill-opacity:1" />
      <g
         id="g8250"
         style="fill:#ffffff;fill-opacity:1" />
      <g
         id="g8252"
         style="fill:#ffffff;fill-opacity:1" />
      <g
         id="g8254"
         style="fill:#ffffff;fill-opacity:1" />
    </g>
  </g>
</svg>
