<?xml version="1.0" encoding="UTF-8" standalone="no"?>
<!-- Created with Inkscape (http://www.inkscape.org/) -->

<svg
   xmlns:dc="http://purl.org/dc/elements/1.1/"
   xmlns:cc="http://creativecommons.org/ns#"
   xmlns:rdf="http://www.w3.org/1999/02/22-rdf-syntax-ns#"
   xmlns:svg="http://www.w3.org/2000/svg"
   xmlns="http://www.w3.org/2000/svg"
   xmlns:sodipodi="http://sodipodi.sourceforge.net/DTD/sodipodi-0.dtd"
   xmlns:inkscape="http://www.inkscape.org/namespaces/inkscape"
   width="56.302975mm"
   height="59.125198mm"
   viewBox="0 0 199.49873 209.49873"
   id="svg2"
   version="1.1"
   inkscape:version="0.91 r13725"
   sodipodi:docname="rect_undercut.svg">
  <defs
     id="defs4">
    <inkscape:perspective
       sodipodi:type="inkscape:persp3d"
       inkscape:vp_x="0 : 526.18108 : 1"
       inkscape:vp_y="0 : 999.99996 : 0"
       inkscape:vp_z="744.09447 : 526.18108 : 1"
       inkscape:persp3d-origin="372.04723 : 350.78739 : 1"
       id="perspective8070" />
  </defs>
  <sodipodi:namedview
     id="base"
     pagecolor="#ffffff"
     bordercolor="#666666"
     borderopacity="1.0"
     inkscape:pageopacity="0.0"
     inkscape:pageshadow="2"
     inkscape:zoom="1"
     inkscape:cx="-302.3321"
     inkscape:cy="7.66721"
     inkscape:document-units="px"
     inkscape:current-layer="layer1"
     showgrid="true"
     fit-margin-top="0"
     fit-margin-left="0"
     fit-margin-right="0"
     fit-margin-bottom="0"
     inkscape:window-width="1873"
     inkscape:window-height="1176"
     inkscape:window-x="1967"
     inkscape:window-y="24"
     inkscape:window-maximized="1">
    <inkscape:grid
       type="xygrid"
       id="grid8068"
       originx="0"
       originy="-6.8484329e-06" />
  </sodipodi:namedview>
  <metadata
     id="metadata7">
    <rdf:RDF>
      <cc:Work
         rdf:about="">
        <dc:format>image/svg+xml</dc:format>
        <dc:type
           rdf:resource="http://purl.org/dc/dcmitype/StillImage" />
        <dc:title />
      </cc:Work>
    </rdf:RDF>
  </metadata>
  <g
     inkscape:label="Ebene 1"
     inkscape:groupmode="layer"
     id="layer1"
     transform="translate(0,-842.86346)">
    <rect
       style="fill:#ffa000;fill-opacity:1;fill-rule:evenodd;stroke:none;stroke-width:0;stroke-linecap:butt;stroke-linejoin:miter;stroke-miterlimit:4;stroke-dasharray:none;stroke-opacity:1"
       id="rect8086"
       width="199.49873"
       height="199.49873"
       x="0"
       y="852.86346"
       ry="19.749413" />
    <rect
       style="fill:#ffc107;fill-opacity:1;fill-rule:evenodd;stroke:none;stroke-width:0;stroke-linecap:butt;stroke-linejoin:miter;stroke-miterlimit:4;stroke-dasharray:none;stroke-opacity:1"
       id="rect8086-3"
       width="199.49873"
       height="199.49873"
       x="0"
       y="842.86346"
       ry="19.749413" />
    <g
       id="Page-1"
       transform="matrix(4.7619048,0,0,5,47.619048,892.36219)"
       style="fill:#ffffff;fill-rule:evenodd;stroke:none;stroke-width:1;stroke-opacity:1;fill-opacity:1">
      <g
         transform="translate(-127,-128)"
         id="Core"
         style="fill:#ffffff;stroke:none;stroke-opacity:1;fill-opacity:1">
        <g
           transform="translate(127.5,128)"
           id="content-cut"
           style="stroke:none;stroke-opacity:1;fill:#ffffff;fill-opacity:1">
          <path
             id="Shape"
             d="M 8,4 C 8,1.8 6.2,0 4,0 1.8,0 0,1.8 0,4 0,6.2 1.8,8 4,8 4.6,8 5.1,7.9 5.6,7.6 L 8,10 5.6,12.4 C 5.1,12.1 4.6,12 4,12 1.8,12 0,13.8 0,16 0,18.2 1.8,20 4,20 6.2,20 8,18.2 8,16 8,15.4 7.9,14.9 7.6,14.4 L 10,12 17,19 21,19 7.6,5.6 C 7.9,5.1 8,4.6 8,4 L 8,4 Z M 4,6 C 2.9,6 2,5.1 2,4 2,2.9 2.9,2 4,2 5.1,2 6,2.9 6,4 6,5.1 5.1,6 4,6 l 0,0 z m 0,12 c -1.1,0 -2,-0.9 -2,-2 0,-1.1 0.9,-2 2,-2 1.1,0 2,0.9 2,2 0,1.1 -0.9,2 -2,2 l 0,0 z m 6,-8.5 c 0.3,0 0.5,0.2 0.5,0.5 0,0.3 -0.2,0.5 -0.5,0.5 C 9.7,10.5 9.5,10.3 9.5,10 9.5,9.7 9.7,9.5 10,9.5 l 0,0 z M 21,1 l -4,0 -6,6 2,2 8,-8 0,0 z"
             inkscape:connector-curvature="0"
             style="stroke:none;stroke-opacity:1;fill:#ffffff;fill-opacity:1" />
        </g>
      </g>
    </g>
  </g>
</svg>
