<?xml version="1.0" encoding="iso-8859-1"?>
<!-- Generator: Adobe Illustrator 19.0.0, SVG Export Plug-In . SVG Version: 6.00 Build 0)  -->
<svg version="1.1" id="Layer_1" xmlns="http://www.w3.org/2000/svg" xmlns:xlink="http://www.w3.org/1999/xlink" x="0px" y="0px"
	 viewBox="0 0 473.931 473.931" style="enable-background:new 0 0 473.931 473.931;" xml:space="preserve">
<circle style="fill:#FFC10E;" cx="236.966" cy="236.966" r="236.966"/>
<g>
	<path style="fill:#333333;" d="M213.393,155.231c-2.66,62.491-94.225,62.491-96.885,0c-1.16-27.229,22.922-47.356,48.433-48.441
		C192.177,105.63,212.307,129.712,213.393,155.231c0.513,12.019,19.221,12.067,18.709,0c-1.605-37.698-29.463-65.548-67.157-67.15
		c-37.65-1.601-65.642,31.869-67.142,67.15c-1.601,37.642,31.861,65.649,67.142,67.15c37.653,1.601,65.657-31.865,67.157-67.15
		C232.614,143.163,213.905,143.212,213.393,155.231z"/>
	<path style="fill:#333333;" d="M353.709,155.231c-2.66,62.491-94.225,62.491-96.885,0c-1.16-27.229,22.922-47.356,48.433-48.441
		C332.493,105.63,352.623,129.712,353.709,155.231c0.513,12.019,19.221,12.067,18.709,0c-1.605-37.698-29.463-65.548-67.157-67.15
		c-37.65-1.601-65.642,31.869-67.142,67.15c-1.601,37.642,31.861,65.649,67.142,67.15c37.653,1.601,65.657-31.865,67.157-67.15
		C372.93,143.163,354.221,143.212,353.709,155.231z"/>
	<path style="fill:#333333;" d="M343.25,316.86c-59.281,60.336-154.658,59.849-213.449-0.898c-8.4-8.685-21.616,4.561-13.227,13.227
		c65.769,67.965,173.64,68.343,239.903,0.898C364.938,321.477,351.718,308.242,343.25,316.86L343.25,316.86z"/>
	<path style="fill:#333333;" d="M104.668,146.209c-26.121,4.988-62.319,9.972-92.238,14.956c-2.196,6.511-4.127,13.137-5.759,19.887
		c31.588-5.601,73.623-11.203,102.977-16.804C121.487,161.988,116.455,143.96,104.668,146.209z"/>
	<path style="fill:#333333;" d="M365.742,146.209c-11.787-2.249-16.819,15.779-4.977,18.039
		c30.252,5.774,74.637,11.543,106.588,17.317c-1.62-6.75-3.525-13.381-5.706-19.895
		C431.006,156.518,392.754,151.362,365.742,146.209z"/>
	<path style="fill:#333333;" d="M258.17,126.337c12.067,0,12.067-18.709,0-18.709c-49.889,0,3.117,0-46.772,0
		c-12.067,0-12.067,18.709,0,18.709C211.398,126.337,208.281,126.337,258.17,126.337z"/>
	<circle style="fill:#333333;" cx="164.937" cy="155.231" r="25.99"/>
	<circle style="fill:#333333;" cx="305.664" cy="155.231" r="24.119"/>
</g>
<g>
</g>
<g>
</g>
<g>
</g>
<g>
</g>
<g>
</g>
<g>
</g>
<g>
</g>
<g>
</g>
<g>
</g>
<g>
</g>
<g>
</g>
<g>
</g>
<g>
</g>
<g>
</g>
<g>
</g>
</svg>
