<?xml version="1.0" encoding="iso-8859-1"?>
<!-- Generator: Adobe Illustrator 19.0.0, SVG Export Plug-In . SVG Version: 6.00 Build 0)  -->
<svg version="1.1" id="Layer_1" xmlns="http://www.w3.org/2000/svg" xmlns:xlink="http://www.w3.org/1999/xlink" x="0px" y="0px"
	 viewBox="0 0 473.931 473.931" style="enable-background:new 0 0 473.931 473.931;" xml:space="preserve">
<circle style="fill:#FFC10E;" cx="236.966" cy="236.966" r="236.966"/>
<g>
	<circle style="fill:#333333;" cx="164.937" cy="155.227" r="37.216"/>
	<circle style="fill:#333333;" cx="305.664" cy="155.227" r="37.216"/>
</g>
<path style="fill:#EFEFEF;" d="M361.076,316.534c7.154,2.78,10.694,10.836,7.91,17.99l-10.073,25.904
	c-2.78,7.154-10.836,10.698-17.99,7.914L112.825,279.61c-7.154-2.78-10.698-10.836-7.914-17.994l10.077-25.9
	c2.78-7.154,10.836-10.694,17.99-7.914L361.076,316.534z"/>
<path style="fill:#FFFFFF;" d="M337.772,223.353c7.027-3.091,15.225,0.097,18.32,7.124l11.188,25.444
	c3.091,7.023-0.094,15.225-7.121,18.316l-224.03,98.55c-7.027,3.091-15.229-0.101-18.32-7.128l-11.192-25.44
	c-3.091-7.023,0.101-15.225,7.124-18.32L337.772,223.353z"/>
<g>
</g>
<g>
</g>
<g>
</g>
<g>
</g>
<g>
</g>
<g>
</g>
<g>
</g>
<g>
</g>
<g>
</g>
<g>
</g>
<g>
</g>
<g>
</g>
<g>
</g>
<g>
</g>
<g>
</g>
</svg>
