<?xml version="1.0" encoding="iso-8859-1"?>
<!-- Generator: Adobe Illustrator 19.0.0, SVG Export Plug-In . SVG Version: 6.00 Build 0)  -->
<svg version="1.1" id="Layer_1" xmlns="http://www.w3.org/2000/svg" xmlns:xlink="http://www.w3.org/1999/xlink" x="0px" y="0px"
	 viewBox="0 0 473.935 473.935" style="enable-background:new 0 0 473.935 473.935;" xml:space="preserve">
<circle style="fill:#FFC10E;" cx="236.967" cy="236.967" r="236.967"/>
<g>
	<circle style="fill:#333333;" cx="164.938" cy="155.232" r="37.216"/>
	<circle style="fill:#333333;" cx="305.667" cy="155.232" r="37.216"/>
	<path style="fill:#333333;" d="M105.279,326.583c86.387,0,172.777,0,259.164,0c12.067,0,12.067-18.709,0-18.709
		c-86.387,0-172.777,0-259.164,0C93.212,307.874,93.212,326.583,105.279,326.583L105.279,326.583z"/>
	<path style="fill:#333333;" d="M112.935,300.533c0,5.613,0,11.225,0,16.838c0,6.032,9.354,6.032,9.354,0c0-5.613,0-11.225,0-16.838
		C122.289,294.497,112.935,294.497,112.935,300.533L112.935,300.533z"/>
	<path style="fill:#333333;" d="M170.932,300.533c0,5.613,0,11.225,0,16.838c0,6.032,9.354,6.032,9.354,0c0-5.613,0-11.225,0-16.838
		C180.287,294.497,170.932,294.497,170.932,300.533L170.932,300.533z"/>
	<path style="fill:#333333;" d="M228.93,300.533c0,5.613,0,11.225,0,16.838c0,6.032,9.354,6.032,9.354,0c0-5.613,0-11.225,0-16.838
		C238.285,294.497,228.93,294.497,228.93,300.533L228.93,300.533z"/>
	<path style="fill:#333333;" d="M286.928,300.533c0,5.613,0,11.225,0,16.838c0,6.032,9.354,6.032,9.354,0c0-5.613,0-11.225,0-16.838
		C296.282,294.497,286.928,294.497,286.928,300.533L286.928,300.533z"/>
	<path style="fill:#333333;" d="M141.619,316.436c0,5.613,0,11.225,0,16.838c0,6.032,9.354,6.032,9.354,0c0-5.613,0-11.225,0-16.838
		C150.974,310.4,141.619,310.4,141.619,316.436L141.619,316.436z"/>
	<path style="fill:#333333;" d="M199.617,316.436c0,5.613,0,11.225,0,16.838c0,6.032,9.354,6.032,9.354,0c0-5.613,0-11.225,0-16.838
		C208.971,310.4,199.617,310.4,199.617,316.436L199.617,316.436z"/>
	<path style="fill:#333333;" d="M257.615,316.436c0,5.613,0,11.225,0,16.838c0,6.032,9.354,6.032,9.354,0c0-5.613,0-11.225,0-16.838
		C266.969,310.4,257.615,310.4,257.615,316.436L257.615,316.436z"/>
	<path style="fill:#333333;" d="M315.612,316.436c0,5.613,0,11.225,0,16.838c0,6.032,9.354,6.032,9.354,0c0-5.613,0-11.225,0-16.838
		C324.967,310.4,315.612,310.4,315.612,316.436L315.612,316.436z"/>
	<path style="fill:#333333;" d="M390.384,335.519c0,0-25.358,0-30.338,0c-4.977,0-30.151-14.937-30.151-19.091
		c0-4.153,24.894-19.091,30.151-19.091c5.257,0,30.338,0,30.338,0C400.925,297.341,400.925,335.519,390.384,335.519z"/>
</g>
<g>
</g>
<g>
</g>
<g>
</g>
<g>
</g>
<g>
</g>
<g>
</g>
<g>
</g>
<g>
</g>
<g>
</g>
<g>
</g>
<g>
</g>
<g>
</g>
<g>
</g>
<g>
</g>
<g>
</g>
</svg>
