<?xml version="1.0" encoding="iso-8859-1"?>
<!-- Generator: Adobe Illustrator 19.0.0, SVG Export Plug-In . SVG Version: 6.00 Build 0)  -->
<svg version="1.1" id="Layer_1" xmlns="http://www.w3.org/2000/svg" xmlns:xlink="http://www.w3.org/1999/xlink" x="0px" y="0px"
	 viewBox="0 0 473.931 473.931" style="enable-background:new 0 0 473.931 473.931;" xml:space="preserve">
<circle style="fill:#FFC10E;" cx="236.966" cy="236.966" r="236.966"/>
<g>
	<circle style="fill:#333333;" cx="164.937" cy="189.367" r="37.216"/>
	<circle style="fill:#333333;" cx="305.664" cy="189.367" r="37.216"/>
	<path style="fill:#333333;" d="M236.951,332.747c-41.358-0.797-78.39-16.995-107.145-46.712c-8.4-8.685-21.616,4.561-13.227,13.227
		c32.119,33.197,74.218,51.307,120.372,52.194C249.025,351.688,248.999,332.975,236.951,332.747L236.951,332.747z"/>
	<path style="fill:#333333;" d="M143.171,115.77c24.83,7.929,46.301,21.395,64.325,40.201c8.359,8.726,21.575-4.524,13.227-13.227
		c-20.224-21.104-44.759-36.127-72.575-45.017C136.619,94.049,131.725,112.114,143.171,115.77L143.171,115.77z"/>
	<path style="fill:#333333;" d="M261.119,154.565c23.031-12.352,47.307-18.481,73.436-18.544c12.063-0.03,12.067-18.739,0-18.709
		c-29.358,0.071-57.021,7.233-82.876,21.104C241.044,144.114,250.488,160.267,261.119,154.565L261.119,154.565z"/>
</g>
<g>
</g>
<g>
</g>
<g>
</g>
<g>
</g>
<g>
</g>
<g>
</g>
<g>
</g>
<g>
</g>
<g>
</g>
<g>
</g>
<g>
</g>
<g>
</g>
<g>
</g>
<g>
</g>
<g>
</g>
</svg>
