<?xml version="1.0" encoding="iso-8859-1"?>
<!-- Generator: Adobe Illustrator 19.0.0, SVG Export Plug-In . SVG Version: 6.00 Build 0)  -->
<svg version="1.1" id="Layer_1" xmlns="http://www.w3.org/2000/svg" xmlns:xlink="http://www.w3.org/1999/xlink" x="0px" y="0px"
	 viewBox="0 0 473.931 473.931" style="enable-background:new 0 0 473.931 473.931;" xml:space="preserve">
<circle style="fill:#FFC10E;" cx="236.966" cy="236.966" r="236.966"/>
<g>
	<path style="fill:#333333;" d="M230.328,309.417c-34.514,58.038-123.336,39.532-129.383-28.894
		c-1.051-11.921-19.771-12.022-18.709,0c3.592,40.628,30.608,73.069,70.865,81.844c37.294,8.127,74.454-11.682,93.376-43.505
		C252.659,308.463,236.483,299.06,230.328,309.417L230.328,309.417z"/>
	<path style="fill:#333333;" d="M393.955,359.456c2.193-43.045-24.523-79.872-65.877-91.684
		c-38.428-10.978-78.517,9.362-98.195,42.454c-6.181,10.395,9.994,19.801,16.149,9.44c37.709-63.415,132.952-33.657,129.214,39.79
		C374.633,371.519,393.345,371.46,393.955,359.456L393.955,359.456z"/>
	<circle style="fill:#333333;" cx="164.937" cy="155.231" r="37.216"/>
	<circle style="fill:#333333;" cx="305.664" cy="155.231" r="62.162"/>
</g>
<g>
</g>
<g>
</g>
<g>
</g>
<g>
</g>
<g>
</g>
<g>
</g>
<g>
</g>
<g>
</g>
<g>
</g>
<g>
</g>
<g>
</g>
<g>
</g>
<g>
</g>
<g>
</g>
<g>
</g>
</svg>
