<?xml version="1.0" encoding="iso-8859-1"?>
<!-- Generator: Adobe Illustrator 19.0.0, SVG Export Plug-In . SVG Version: 6.00 Build 0)  -->
<svg version="1.1" id="Layer_1" xmlns="http://www.w3.org/2000/svg" xmlns:xlink="http://www.w3.org/1999/xlink" x="0px" y="0px"
	 viewBox="0 0 473.931 473.931" style="enable-background:new 0 0 473.931 473.931;" xml:space="preserve">
<circle style="fill:#FFC10E;" cx="236.966" cy="236.966" r="236.966"/>
<g>
	<circle style="fill:#333333;" cx="164.937" cy="152.997" r="37.216"/>
	<circle style="fill:#333333;" cx="305.664" cy="152.997" r="37.216"/>
	<path style="fill:#333333;" d="M236.951,362.678c-41.358-0.797-78.39-16.995-107.145-46.712c-8.4-8.685-21.616,4.561-13.227,13.227
		c32.119,33.197,74.218,51.307,120.372,52.194C249.025,381.618,248.999,362.906,236.951,362.678L236.951,362.678z"/>
	<path style="fill:#333333;" d="M120.301,105.944c19.966-16.759,42.907-27.566,68.388-32.845
		c11.809-2.447,6.795-20.482-4.977-18.043c-28.722,5.953-54.218,18.836-76.639,37.661
		C97.821,100.481,111.13,113.648,120.301,105.944L120.301,105.944z"/>
	<path style="fill:#333333;" d="M291.079,68.152c24.871,7.794,46.42,21.126,64.553,39.835c8.408,8.677,21.624-4.565,13.227-13.227
		c-20.34-20.988-44.939-35.917-72.803-44.654C284.508,46.491,279.607,64.553,291.079,68.152L291.079,68.152z"/>
</g>
<g>
</g>
<g>
</g>
<g>
</g>
<g>
</g>
<g>
</g>
<g>
</g>
<g>
</g>
<g>
</g>
<g>
</g>
<g>
</g>
<g>
</g>
<g>
</g>
<g>
</g>
<g>
</g>
<g>
</g>
</svg>
