<?xml version="1.0" encoding="iso-8859-1"?>
<!-- Generator: Adobe Illustrator 19.0.0, SVG Export Plug-In . SVG Version: 6.00 Build 0)  -->
<svg version="1.1" id="Layer_1" xmlns="http://www.w3.org/2000/svg" xmlns:xlink="http://www.w3.org/1999/xlink" x="0px" y="0px"
	 viewBox="0 0 473.931 473.931" style="enable-background:new 0 0 473.931 473.931;" xml:space="preserve">
<circle style="fill:#FFC10E;" cx="236.966" cy="236.966" r="236.966"/>
<g>
	<path style="fill:#333333;" d="M374.187,172.974c-16.801-35.584-57.331-51.868-94.057-37.59
		c-11.117,4.325-6.286,22.421,4.973,18.043c29.522-11.48,59.371,0.277,72.927,28.987
		C363.179,193.322,379.306,183.821,374.187,172.974L374.187,172.974z"/>
	<path style="fill:#333333;" d="M122.243,182.328c13.556-28.711,43.404-40.471,72.927-28.987
		c11.259,4.378,16.09-13.717,4.973-18.043c-36.725-14.282-77.252,2.006-94.057,37.59
		C100.968,183.732,117.095,193.232,122.243,182.328L122.243,182.328z"/>
	<path style="fill:#333333;" d="M283.158,287.816c0,39.981-20.684,72.384-46.203,72.384c-25.511,0-46.203-32.404-46.203-72.384
		c0-39.962,20.692-72.384,46.203-72.384C262.473,215.432,283.158,247.854,283.158,287.816z"/>
</g>
<g>
</g>
<g>
</g>
<g>
</g>
<g>
</g>
<g>
</g>
<g>
</g>
<g>
</g>
<g>
</g>
<g>
</g>
<g>
</g>
<g>
</g>
<g>
</g>
<g>
</g>
<g>
</g>
<g>
</g>
</svg>
