<svg version="1" xmlns="http://www.w3.org/2000/svg" width="400" height="400" viewBox="0 0 300.000000 300.000000"><path d="M107 6.4c-5.6 1.6-16.9 6.1-23.5 9.4C49.3 32.6 21.8 63.5 9 99.3-8.2 147.2 0 199.9 31.1 241c8.4 11.2 8.3 11.1 11.4 5 3.5-6.9 10.3-13.6 17.3-16.8 5.1-2.4 6.9-2.7 16.6-2.7h10.9l17.4-26.1 17.5-26.2-2.6-3.8c-6.4-9.7-7.8-22.9-3.6-33.9 3-7.8 10.5-15.7 18.2-19.3l5.8-2.7V35.3l-4.7-1.8c-7-2.7-16.4-12.4-19.1-19.8-1.2-3.2-2.2-6.4-2.2-7.2 0-1.8-.9-1.8-7-.1zM71.2 68.8c6.6 4.5 10.3 12.2 9.5 19.8-.7 7-4.5 13.6-9.9 17.2-3.7 2.4-5.1 2.7-12.3 2.7-7.2 0-8.6-.3-12.3-2.7-5.4-3.6-9.2-10.2-9.9-17.2-.8-7.4 2.9-15.3 9-19.5 5.9-3.9 6.4-4.1 14.2-3.8 6 .2 7.6.7 11.7 3.5zM186 6.4c0 .8-.9 4-2.1 7.1-2.9 7.7-11.3 16.6-18.4 19.6l-5.5 2.3v79.1l6.1 2.8c3.3 1.6 6.4 2.7 6.8 2.5.5-.2 9.7-7.1 20.5-15.3l19.6-15-.8-3.5c-.4-1.9-.7-7.3-.7-12 .1-6.6.6-9.6 2.3-13.3 5.1-11.3 14.4-18.8 26.5-21.3 3.9-.8 7.6-1.6 8.1-1.7 1.2-.4-13-11.2-21.1-16.1-11-6.6-28.8-14.1-38-16.1-2.6-.5-3.3-.3-3.3.9zM281.8 87.8c-3.4 9.5-13.3 19-23.3 22.2-5.2 1.7-16.9 1.7-22 0-2.2-.7-5.6-2.3-7.5-3.5l-3.5-2.2L205 120c-11.3 8.7-20.4 16.4-20.3 17.2.1.7.6 3.9 1.3 7.1 1.2 6.2.3 13.6-2.5 20.3l-1.6 3.8 30.8 30.8c16.9 16.9 31.5 30.8 32.3 30.8.9 0 2-.4 2.6-.8 3.5-3.2 17.8-4.1 25.5-1.8l4.7 1.4 5-9.7c19.3-36.8 22.3-79.9 8.2-119.7-2.6-7.3-6.6-16.4-7.3-16.4-.1 0-1 2.2-1.9 4.8zM162.5 184.2c-5.3 2.1-14.6 2.8-20.6 1.5l-3.6-.7-17.8 26.7c-14.4 21.7-17.5 27-16.6 28.2 10.6 14.9 10 32.6-1.5 46.8l-3.4 4.1 4.7 1.6c9.6 3.1 21.9 5.6 34 6.7 27.4 2.6 58.3-3.8 83.3-17.2 4.1-2.3 7.6-4.2 7.8-4.3.1-.2-.5-2.2-1.3-4.6-2.2-6.2-1.9-15.4.7-22.8l2.2-6.3-30.9-30.9c-17.1-17.1-31.2-31-31.5-30.9-.3.1-2.7 1-5.5 2.1z"/></svg>